<svg width="20" height="20" viewBox="0 0 20 20" fill="none" xmlns="http://www.w3.org/2000/svg">
<path d="M17.1337 14.9191L13.9606 12.0104C14.6162 11.1046 15 10.0201 15 8.85417C15 5.6951 12.1962 3.125 8.75 3.125C5.30375 3.125 2.5 5.6951 2.5 8.85417C2.5 12.0132 5.30375 14.5833 8.75 14.5833C10.0219 14.5833 11.205 14.2316 12.1931 13.6306L15.3662 16.5393C15.8537 16.9867 16.6462 16.9867 17.1337 16.5393C17.6219 16.0918 17.6219 15.3665 17.1337 14.9191ZM4.375 8.85417C4.375 6.64271 6.3375 4.84375 8.75 4.84375C11.1625 4.84375 13.125 6.64271 13.125 8.85417C13.125 11.0656 11.1625 12.8646 8.75 12.8646C6.3375 12.8646 4.375 11.0656 4.375 8.85417Z" fill="#5D5FEF"/>
</svg>
